<?xml version="1.0" encoding="UTF-8" standalone="no"?><!DOCTYPE svg PUBLIC "-//W3C//DTD SVG 1.1//EN" "http://www.w3.org/Graphics/SVG/1.1/DTD/svg11.dtd"><svg width="100%" height="100%" viewBox="0 0 485 485" version="1.1" xmlns="http://www.w3.org/2000/svg" xmlns:xlink="http://www.w3.org/1999/xlink" xml:space="preserve" xmlns:serif="http://www.serif.com/" style="fill-rule:evenodd;clip-rule:evenodd;stroke-linejoin:round;stroke-miterlimit:2;"><g id="_47.png" serif:id="47.png"><path d="M250.145,483.872c-23.307,0.965 -45.324,-0.812 -58.4,-1.784c-74.253,-5.516 -50.631,-4.724 -57.012,-5.282c-9.927,-0.868 -65,-23.498 -68.082,-25.485c-44.445,-28.658 -42.324,-31.358 -58.463,-58.535c-11.778,-19.833 -8.155,-167.272 -5.505,-188.865c6.234,-50.792 -11.541,-67.441 31.069,-120.684c4.481,-5.6 5.66,-28.958 40.453,-60c39.001,-34.796 201.706,-21.709 209.878,-16.198c12.5,8.43 104.408,15.429 157.854,70.306c23.707,24.342 46.721,100.827 42.457,136.986c-11.556,98.012 5.051,171.08 -38.41,216.328c-25.126,26.159 -31.232,26.493 -41.019,36.77c-9.465,9.939 -73.963,10.819 -84.541,15.093" style="fill:#dc02fd;fill-opacity:0.96;"/><path d="M235.026,308.714c-12.371,-1.743 -26.396,2.205 -48.383,-25.579c-94.081,-118.888 66.808,-158.481 98.216,-155.192c160.537,16.811 160.245,211.234 50.55,256.952c-207.969,86.676 -262.785,-114.211 -241.179,-190.891c29.379,-104.264 54.243,-126.778 102.374,-145.927c50.671,-20.159 192.994,37.512 205.225,49.565c10.722,10.566 52.88,83.045 52.928,84.668c2.112,71.761 -69.215,-140.27 -250.08,-69.136c-11.331,4.456 -104.231,43.17 -77.984,130.699c45.273,150.975 200.784,98.693 218.272,50.329c42.175,-116.64 -166.612,-162.22 -144.137,-58.979c10.045,46.142 76.645,32.806 42.932,0.122c-38.1,-36.937 67.568,-33.933 69.663,29.005c1.542,46.34 -70.499,43.722 -78.395,44.364Z" style="fill:#fe47f5;"/><path d="M199.515,431.564c-10.611,2.632 7.658,14.396 -3.404,17.14c-3.188,0.791 -6.681,1.657 -40.585,-6.228c-80.628,-18.752 -108.204,-76.617 -113.114,-86.919c-13.976,-29.327 -34.793,-150.714 37.677,-278.287c17.902,-31.514 51.122,-39.668 35.889,-12.799c-8.937,15.764 -75.399,132.994 -52.747,220.292c27.278,105.125 61.61,123.921 136.284,146.801Z" style="fill:#fc44f5;"/><path d="M426.162,335.088l28.639,-62.185c6.704,15.302 -9.611,76.557 -17.72,91.55c-1.222,2.259 0.587,2.275 -12.263,29.665c-26.074,55.574 -71.764,58.884 -79.698,59.459c-58.864,4.265 -63.1,1.565 -80.165,1.562c-24.127,-0.004 -23.583,-2.863 -39.796,-20.699c136.755,-1.326 168.612,-30.121 201.003,-99.352Z" style="fill:#fc44f5;"/></g></svg>