<?xml version="1.0" encoding="UTF-8" standalone="no"?><!DOCTYPE svg PUBLIC "-//W3C//DTD SVG 1.1//EN" "http://www.w3.org/Graphics/SVG/1.1/DTD/svg11.dtd"><svg width="100%" height="100%" viewBox="0 0 500 500" version="1.1" xmlns="http://www.w3.org/2000/svg" xmlns:xlink="http://www.w3.org/1999/xlink" xml:space="preserve" xmlns:serif="http://www.serif.com/" style="fill-rule:evenodd;clip-rule:evenodd;stroke-linejoin:round;stroke-miterlimit:2;"><g id="_49.png" serif:id="49.png"><path d="M385.979,246.163c3.847,12.085 24.955,52.244 25.551,69.107c0.387,10.961 -93.43,38.414 -93.43,38.414c0,0 -5.769,-52.101 67.878,-107.521Z" style="fill:#67a356;fill-opacity:0.97;"/><path d="M161.344,342.629c27.474,-11.481 36.887,-32.904 100.394,-4.588c8.723,3.889 8.786,0.575 18.028,1.181c-12.882,28.256 -56.591,42.563 -61.287,42.629c-2.57,9.857 -50.088,-31.593 -57.134,-39.221Z" style="fill:#65a155;fill-opacity:0.98;"/><path d="M81.329,255.985l24.996,-18.369c12.609,4.897 50.188,16.155 47.065,29.109c-5.437,22.558 -4.734,22.323 -0.323,44.711c-27.676,-4.791 -105.386,-27.301 -87.546,-38.205" style="fill:#67a257;fill-opacity:0.96;"/><path d="M290.202,192.858c33.925,1.381 27.543,-0.283 71.049,7.251c-0.412,8.678 3.813,21.993 8.881,29.828c4.331,4.291 8.663,8.582 12.994,12.873c-59.045,-9.154 -77.652,7.256 -92.924,-49.952Z" style="fill:#689958;fill-opacity:0.76;"/><path d="M231.309,186.976l19.654,7.803c-17.488,25.178 -12.497,31.767 -34.832,34.441c-24.909,2.982 -22.81,-3.652 -54.787,-20.118c12.266,-12.126 21.91,-36.456 33.694,-35.139c20.039,2.24 18.945,6.98 36.271,13.013Z" style="fill:#6e9f5d;fill-opacity:0.82;"/><path d="M281.351,154.213c56.494,7.56 62.629,29.151 57.061,37.331c-23.418,34.402 -41.127,30.142 0.511,25.32c35.733,-4.138 57.828,9.428 62.083,41.494c4.399,33.152 -29.829,46.025 -50.584,39.825c-27.128,-8.103 -1.39,6.143 2.983,11.729c11.42,14.587 -6.858,51.409 -28.306,56.315c-72.598,16.605 -93.483,-24.476 -96.007,-29.056c-2.107,-3.823 0.208,-16.253 -7.914,-2.425c-1.887,3.213 -55.16,45.904 -113.361,5.94c-41.211,-28.298 7.781,-67.638 14.982,-68.911c35.1,-6.204 20.833,-8.631 6.104,-10.607c-4.73,-0.635 -60.964,-8.944 -13.926,-61.6c26.994,-30.218 66.567,-22.573 82.069,-5.592c29.5,32.316 2.995,-0.557 13.254,-22.638c1.496,-3.22 10.368,-25.246 71.05,-17.126Z" style="fill:#fd83eb;fill-opacity:0.96;"/><path d="M230.71,226.498c0,0 -20.14,-62.944 45.26,-53.611c63.888,9.117 27.233,29.264 9.637,58.808c-61.036,-10.138 -49.932,-6.386 -54.896,-5.197Z" style="fill:#ffb7f6;"/><path d="M196.693,267.225c0,0 6.552,14.377 23.862,26.899c0,0 -33.944,61.087 -83.124,36.521c-74.196,-37.061 59.262,-63.42 59.262,-63.42Z" style="fill:#ffb7f6;"/><path d="M290.202,239.069c12.349,-1.997 76.657,-20.633 89.464,10.352c21.461,51.925 -63.422,31.966 -75.848,28.828c-2.885,-20.174 0.309,-20.353 -13.617,-39.181Z" style="fill:#ffb7f6;"/><path d="M303.511,282.37c0,0 70.856,40.849 12.114,62.431c-53.454,19.639 -73.688,-26.137 -72.8,-50.699c67.339,-15.388 56.085,-8.499 60.685,-11.731Z" style="fill:#ffb7f6;"/><path d="M220.555,229.564c-4.021,9.891 -10.373,21.302 -14.394,31.193c-29.153,-4.177 -126.13,-13.668 -66.783,-49.893c33.387,-20.379 59.665,1.407 81.177,18.7Z" style="fill:#ffb7f6;"/><path d="M282.885,223.693c14.003,5.266 13.486,5.08 26.274,12.095c9.036,20.902 6.963,21.1 8.836,43.496c-4.052,5.116 -8.103,10.232 -12.155,15.348c-3.983,2.158 -2.927,5.85 -61.23,16.124c-6.08,-1.115 -12.159,-2.229 -18.239,-3.344l-10.083,-8.254c0.931,-2.389 -6.207,-3.208 -5.276,-5.597c2.218,-5.689 9.204,-31.9 71.874,-69.868Z" style="fill:#ffe881;"/><path d="M218.733,301.847c-17.31,-12.393 -16.498,-10.84 -28.274,-28.213c-11.718,-33.48 46.923,-71.229 97.004,-48.864c-64.676,38.779 -55.188,48.409 -61.14,57.809" style="fill:#fffcc8;"/></g></svg>