<?xml version="1.0" encoding="UTF-8" standalone="no"?><!DOCTYPE svg PUBLIC "-//W3C//DTD SVG 1.1//EN" "http://www.w3.org/Graphics/SVG/1.1/DTD/svg11.dtd"><svg width="100%" height="100%" viewBox="0 0 500 500" version="1.1" xmlns="http://www.w3.org/2000/svg" xmlns:xlink="http://www.w3.org/1999/xlink" xml:space="preserve" xmlns:serif="http://www.serif.com/" style="fill-rule:evenodd;clip-rule:evenodd;stroke-linejoin:round;stroke-miterlimit:2;"><g id="_0.png" serif:id="0.png"><path d="M135.702,374.604c-7.063,-7.391 -39.637,-34.11 -73.557,-82.669c-85.175,-121.936 -16.995,-251.709 111.373,-213.268c38.877,11.642 68.073,47.216 68.073,47.216c0,0 20.118,-8.841 33.869,-20.159c91.529,-75.33 168.976,-38.704 190.278,-2.939c33.555,56.338 22.584,94.886 -12.389,149.022c0,0 -154.976,173.21 -186.691,204.455c-5.509,5.427 -12.696,5.867 -18.749,2.098c-17.374,-10.816 -69.622,-42.68 -112.207,-83.757Z" style="fill:#040306;fill-opacity:0.99;"/><path d="M75.883,125.883c66.744,102.592 70.06,178.607 202.421,272.012c-21.048,17.888 -23.08,26.351 -45.857,11.213c-6.79,-4.513 -44.821,-27.613 -65.181,-46.448c-157.072,-145.307 -103.227,-220.285 -91.384,-236.777Z" style="fill:#af00fd;"/><path d="M124.974,105.72c33.567,65.667 33.955,65.225 36.815,70.945c8.644,17.288 68.949,137.892 141.142,196.091c-8.209,8.38 -16.417,16.76 -24.626,25.139c-146.035,-87.46 -143.841,-165.87 -202.421,-272.012c21.084,-18.727 21.16,-18.371 49.091,-20.163Z" style="fill:#0010fe;"/><path d="M124.974,105.72c23.771,4.927 43.577,-0.693 87.871,41.473c4.109,17.026 13.401,33.754 119.311,194.816c6.233,-4.156 -16.089,13.46 -29.225,31.439c-86.748,-50.529 -159.366,-197.216 -177.957,-267.728Z" style="fill:#00f4fd;"/><path d="M212.845,147.193c14.558,7.653 28.751,18.329 28.751,18.329c0,0 16.637,-15.162 27.035,-17.929c5.172,5.938 5.467,18.524 10.639,24.462c6.856,9.242 39.045,66.214 98.009,119.88c-22.39,24.358 -42.035,47.419 -45.123,50.074c-127.304,-149.177 -121.651,-174.207 -119.311,-194.816Z" style="fill:#3efc01;"/><path d="M313.206,112.008c11.184,7.872 24.371,17.155 126.375,115.138c-28.367,29.683 -34.227,37.101 -62.302,64.789c-72.27,-39.931 -116.035,-131.443 -117.956,-139.909c22.65,-19.263 41.79,-30.473 53.883,-40.018Z" style="fill:#fdf800;"/><path d="M375.036,91.922c0.9,10.292 5.858,66.962 78.313,102.694c-6.384,16.639 -4.793,16.089 -13.769,32.53c-82.674,-3.267 -109.355,-78.667 -126.375,-115.138c32.37,-22.867 38.734,-16.255 61.83,-20.086Z" style="fill:#fd9700;"/><path d="M375.036,91.922c71.469,3.893 88.191,38.326 78.313,102.694c-72.455,-35.732 -77.413,-92.402 -78.313,-102.694Z" style="fill:#fe1900;"/></g></svg>