<?xml version="1.0" encoding="UTF-8" standalone="no"?><!DOCTYPE svg PUBLIC "-//W3C//DTD SVG 1.1//EN" "http://www.w3.org/Graphics/SVG/1.1/DTD/svg11.dtd"><svg width="100%" height="100%" viewBox="0 0 500 500" version="1.1" xmlns="http://www.w3.org/2000/svg" xmlns:xlink="http://www.w3.org/1999/xlink" xml:space="preserve" xmlns:serif="http://www.serif.com/" style="fill-rule:evenodd;clip-rule:evenodd;stroke-linejoin:round;stroke-miterlimit:2;"><g id="_3.png" serif:id="3.png"><path d="M419.397,114.773c44.517,46.746 98.521,228.285 -3.196,322.559c-110.452,102.37 -290.248,52.94 -357.183,-42.097c-74.411,-105.65 -29.354,-202.357 23.744,-271.194c82.806,-107.352 230.735,-120.474 336.636,-9.269Z" style="fill:#8c5700;"/><path d="M405.869,136.33c39.259,41.24 86.886,201.398 -2.818,284.568c-97.407,90.313 -255.968,46.705 -314.999,-37.139c-65.623,-93.207 -25.887,-178.523 20.939,-239.252c73.026,-94.708 203.484,-106.284 296.878,-8.177Z" style="fill:#d49605;"/><path d="M148.456,92.109c52.755,-33.574 132.005,-45.919 203.67,2.944c-0,-0 20.563,110.961 11.909,143.597c-15.99,60.301 -54.141,191.617 -265.351,158.208c-123.235,-142.216 2.324,-274.552 49.773,-304.748Z" style="fill:#dcc90b;"/></g></svg>