<?xml version="1.0" encoding="UTF-8" standalone="no"?><!DOCTYPE svg PUBLIC "-//W3C//DTD SVG 1.1//EN" "http://www.w3.org/Graphics/SVG/1.1/DTD/svg11.dtd"><svg width="100%" height="100%" viewBox="0 0 500 500" version="1.1" xmlns="http://www.w3.org/2000/svg" xmlns:xlink="http://www.w3.org/1999/xlink" xml:space="preserve" xmlns:serif="http://www.serif.com/" style="fill-rule:evenodd;clip-rule:evenodd;stroke-linejoin:round;stroke-miterlimit:2;"><g id="_0.png" serif:id="0.png"><path d="M232.232,456.009c-4.621,-0.018 -82.443,11.108 -121.707,-9.245c-12.95,-6.713 -14.397,-11.661 -17.15,-26.345c-13.042,-69.554 -22.216,-331.8 -17.879,-351.984c7.045,-32.786 191.669,-16.756 301.745,-24.644c14.474,-1.037 39.436,-1.245 54.888,-1.265c8.095,-0.011 11.211,8.642 8.411,25.77c-5.936,36.313 -13.813,110.902 -5.175,222.852c1.688,21.883 5.693,106.363 7.294,140.756c0.424,9.1 -2.113,14.726 -7.205,14.814c-27.191,0.468 -119.95,2.488 -203.222,9.293Z" style="fill:#284e85;fill-opacity:1;"/><path d="M421.014,419.717l-13.852,0.703c-32.389,-131.432 -24.839,-247.143 -5.541,-351.984l17.816,0.372c0,0 -11.163,77.531 -5.784,216.986c0.904,23.424 7.36,133.924 7.36,133.924Z" style="fill:#fef3af;fill-opacity:1;"/><path d="M230.153,429.092c-3.699,-0.015 -66.009,9.872 -97.445,-7.356c-10.369,-5.682 -11.947,-15.796 -14.152,-28.225c-10.443,-58.874 -30.922,-282.815 -23.654,-298.51c18.062,-39.008 33.682,-12.844 265.107,-26.087c17.679,-1.012 27.352,-0.479 27.352,-0.479c0,0 -18.153,77.903 -7.975,217.357c1.71,23.424 5.617,134.627 5.617,134.627c0,0 -75.691,1.834 -154.849,8.673Z" style="fill:#9dc5fe;fill-opacity:1;"/><path d="M379.288,430.442c0,0 -13.422,-87.846 -14.191,-185.359c-0.762,-96.624 11.113,-192.856 14.191,-193.053c23.608,-1.511 23.72,0 23.72,0c-16.513,132.577 -13.539,260.573 0,386.085l-23.72,-7.672Z" style="fill:#284e85;fill-opacity:1;"/><path d="M314.842,205.102l-11.146,11.513l-121.77,2.127l-12.57,-7.735l-3.463,-64.355l11.006,-12.111l126.798,-4.401l8.234,7.687l2.912,67.275Z" style="fill:#fef3af;"/></g></svg>