<?xml version="1.0" encoding="UTF-8" standalone="no"?><!DOCTYPE svg PUBLIC "-//W3C//DTD SVG 1.1//EN" "http://www.w3.org/Graphics/SVG/1.1/DTD/svg11.dtd"><svg width="100%" height="100%" viewBox="0 0 500 500" version="1.1" xmlns="http://www.w3.org/2000/svg" xmlns:xlink="http://www.w3.org/1999/xlink" xml:space="preserve" xmlns:serif="http://www.serif.com/" style="fill-rule:evenodd;clip-rule:evenodd;stroke-linejoin:round;stroke-miterlimit:2;"><g id="_1.png" serif:id="1.png"><path d="M65,-0l360,0c19.713,-0.911 60.503,14.95 74.99,35c-0,49.859 0.01,406.646 0.01,406.646c-1.969,36.683 -24.594,55.004 -64.063,58.354c0,0 -346.058,-0.01 -400.937,-0.01c-22.059,-2.851 -38.464,-20.363 -35,-34.99l0,-390c-2.054,-26.55 1.237,-63.592 65,-75Z" style="fill:#684718;fill-opacity:1;"/><path d="M392.04,443.125l-279.475,-0.513c0,0 140.37,-134.629 142.048,-133.757c20.705,10.761 37.83,35.466 60.588,59.588c30.922,32.776 66.024,65.895 76.839,74.682Z" style="fill:#7e551c;"/><path d="M89.235,57.704l326.134,-0.829c0,0 -163.246,157.996 -165.113,156.814c-96.754,-61.3 -161.021,-155.985 -161.021,-155.985Z" style="fill:#7e551c;"/><path d="M56.875,429.075l2.853,-334.741c0,0 154.14,165.827 152.546,167.375c-58.059,56.358 -153.77,142.274 -155.4,167.367Z" style="fill:#7e551c;"/><path d="M443.125,94.333l-1.791,334.749c-0.993,3.056 -146.687,-170.936 -142.471,-174.912c45.326,-42.752 132.421,-145.572 132.421,-145.572l11.841,-14.264Z" style="fill:#7e551c;"/></g></svg>