<?xml version="1.0" encoding="UTF-8" standalone="no"?><!DOCTYPE svg PUBLIC "-//W3C//DTD SVG 1.1//EN" "http://www.w3.org/Graphics/SVG/1.1/DTD/svg11.dtd"><svg width="100%" height="100%" viewBox="0 0 500 500" version="1.1" xmlns="http://www.w3.org/2000/svg" xmlns:xlink="http://www.w3.org/1999/xlink" xml:space="preserve" xmlns:serif="http://www.serif.com/" style="fill-rule:evenodd;clip-rule:evenodd;stroke-linejoin:round;stroke-miterlimit:2;"><g id="streak_story.png"><path d="M239.879,65.261c-6.174,-20.816 -6.53,-41.268 -6.53,-41.268c0,0 28.7,-0.096 50.462,15.273c19.805,13.987 32.661,43.273 36.258,48.727c28.852,34.632 29.296,68.189 33.129,95.191c2.33,16.415 -10.13,66.817 -10.13,66.817c33.03,-10.013 58.597,-27.487 80.957,-48.169c5.935,-2.698 8.081,85.786 1.338,123.295c-23.465,91.973 -52.93,100.625 -90.109,120.476c-38.507,20.561 -87.419,17.175 -128.935,5.888c-42.277,-11.494 -82.232,-36.973 -95.727,-68.854c-38.277,-90.423 -34.843,-128.748 -17.837,-168.968c11.048,-26.13 73.372,-85.352 73.372,-85.352c0,0 -10.297,33.488 -8.743,48.246c1.731,16.449 9.632,33.451 9.632,33.451c0,0 10.618,-3.421 23.52,-37.979c6.804,-18.225 31.673,-47.507 31.673,-47.507c0,0 26.77,-42.028 17.672,-59.266Z" style="fill:#0095cc;fill-opacity:0.9;"/><path d="M331.254,405.603c-17.088,21.242 -89.998,21.174 -116.435,5.388c-89.267,-64.886 -75.075,-132.119 -75.075,-132.119c0,0 24.94,2.621 35.089,6.336c9.148,3.349 25.808,15.957 25.808,15.957c0,0 7.766,-32.689 17.478,-45.85c10.943,-14.83 31.185,-55.345 61.181,-70.132c8.704,5.219 3.485,56.259 10.442,71.222c5.68,12.217 18.302,45.557 18.302,45.557c0,0 15.773,-11.326 34.769,-16.877c13.466,-3.936 30.293,-3.229 36.515,-1.281c9.28,0 6.692,30.162 -4.793,59.598c-9.38,24.04 -24.861,46.264 -43.28,62.202Z" style="fill:#00d6fa;fill-opacity:0.98;"/></g></svg>