<?xml version="1.0" encoding="UTF-8" standalone="no"?><!DOCTYPE svg PUBLIC "-//W3C//DTD SVG 1.1//EN" "http://www.w3.org/Graphics/SVG/1.1/DTD/svg11.dtd"><svg width="100%" height="100%" viewBox="0 0 500 500" version="1.1" xmlns="http://www.w3.org/2000/svg" xmlns:xlink="http://www.w3.org/1999/xlink" xml:space="preserve" xmlns:serif="http://www.serif.com/" style="fill-rule:evenodd;clip-rule:evenodd;stroke-linejoin:round;stroke-miterlimit:2;"><g id="_16.png" serif:id="16.png"><path d="M60.164,493.704c-38.196,-7.607 -52.991,-30.545 -53.543,-62.816l-0,-374.011c0.986,-32.803 21.404,-46.984 53.543,-49.931l367.016,-0c39.952,-4.168 65.19,11.283 66.199,59.039l0,368.812c-3.092,37.222 -26.491,54.137 -62.035,58.907l-371.18,0Z" style="fill:#d6ebfe;fill-opacity:0.78;"/><path d="M57.227,147.898c0.287,-2.195 -0.071,-50.41 43.513,-74.294c10.217,-5.599 65.657,-16.27 96.662,-6.335c3.754,1.203 59.386,30.841 -19.971,45.045c-113.612,20.335 -61.578,92.749 -97.609,104.38c-34.66,11.189 -23.448,-55.995 -22.596,-68.796Z" style="fill:#fcfdfe;fill-opacity:0.99;"/></g></svg>