<?xml version="1.0" encoding="UTF-8" standalone="no"?><!DOCTYPE svg PUBLIC "-//W3C//DTD SVG 1.1//EN" "http://www.w3.org/Graphics/SVG/1.1/DTD/svg11.dtd"><svg width="100%" height="100%" viewBox="0 0 500 500" version="1.1" xmlns="http://www.w3.org/2000/svg" xmlns:xlink="http://www.w3.org/1999/xlink" xml:space="preserve" xmlns:serif="http://www.serif.com/" style="fill-rule:evenodd;clip-rule:evenodd;stroke-linejoin:round;stroke-miterlimit:2;"><g id="_1.png" serif:id="1.png"><path d="M443.29,377.755c-30.136,17.377 -31.239,13.91 -62.995,25.515c-53.719,19.632 -199.65,1.035 -240.599,-8.305c-66.476,-15.163 -129.355,-11.477 -90.818,-62.933c42.722,-57.043 13.024,-110.941 71.514,-168.892c84.939,-84.157 203.293,-47.223 220.427,-41.875c85.091,26.554 97.474,118.657 95.694,151.292c-3.351,61.453 55.964,74.626 6.776,105.199Z" style="fill:#404040;fill-opacity:0.98;"/><path d="M373.801,180.267c-7.511,-15.485 34.427,42.876 36.404,90.947c1.268,30.851 4.536,54.849 13.993,63.103c16.05,14.009 -14.729,29.56 -30.9,29.345c-21.721,-0.289 -112.176,33.56 -283.373,-9.858c-33.342,-8.456 -13.105,-21.839 -5.82,-60.108c0.137,-0.719 7.771,-153.043 166.096,-150.951c86.496,1.143 104.818,40.031 103.601,37.523Z" style="fill:#545454;"/><path d="M405.129,223.37c11.377,11.439 14.332,39.27 -4.542,51.7c-69.351,21.386 -53.833,-70.923 -2.829,-55.817c2.249,0.666 5.179,3.272 7.371,4.117Z" style="fill:#fefefe;"/><path d="M318.724,230.007c12.105,12.171 15.249,41.783 -4.833,55.009c-73.789,22.754 -57.278,-75.461 -3.01,-59.389c2.393,0.709 5.51,3.481 7.843,4.38Z" style="fill:#fefefe;"/></g></svg>