<?xml version="1.0" encoding="UTF-8" standalone="no"?><!DOCTYPE svg PUBLIC "-//W3C//DTD SVG 1.1//EN" "http://www.w3.org/Graphics/SVG/1.1/DTD/svg11.dtd"><svg width="100%" height="100%" viewBox="0 0 500 500" version="1.1" xmlns="http://www.w3.org/2000/svg" xmlns:xlink="http://www.w3.org/1999/xlink" xml:space="preserve" xmlns:serif="http://www.serif.com/" style="fill-rule:evenodd;clip-rule:evenodd;stroke-linejoin:round;stroke-miterlimit:2;"><g id="_18.png" serif:id="18.png"><path d="M155.223,233.351c50.533,4.741 101.661,16.116 180.567,4.947l19.842,2.202c8.41,7.916 89.126,87.25 84.42,122.725c-10.897,82.157 -258.061,62.133 -273.828,58.74c-160.535,-34.544 -115.076,-86.741 -25.766,-181.465l14.764,-7.149Z" style="fill:#f1f9f8;"/><path d="M124.856,226.969l30.367,6.383l-3.376,11.649c-76.01,87.396 -112.351,145.134 3.234,159.465c5.086,0.631 4.723,0.463 63.759,6.257c14.809,1.351 183.212,20.696 206.713,-45.497c11.973,-33.723 -71.511,-112.309 -79.92,-120.225l-9.842,-6.702c9.669,-2.22 70.534,-60.783 126.04,106.72c7.638,23.051 -20.163,64.818 -35.105,75.793c-48.577,35.682 -47.583,29.576 -241.984,27.582c-257.939,-2.646 -125.362,-194.439 -59.885,-221.424Z" style="fill:#d7ebfd;"/><path d="M81.088,186.109c14.96,-13.41 53.845,-28.909 86.772,-29.136c31.958,-0.221 101.021,-6.6 157.61,0c41.355,4.824 75.118,21.935 87.498,26.844c31.131,12.344 -17.571,56.174 -53.306,58.684c-55.313,3.885 -217.207,6.5 -259.075,-9.149c-26.147,-9.773 -40.186,-28.7 -19.5,-47.243Z" style="fill:#0a0606;"/><path d="M165.906,103.706c-66.636,-51.969 200.251,-151.466 166.073,-0.074c-63.749,18.977 -68.676,45.924 -119.784,4.762c-2.899,-2.335 -3.426,0.556 -46.289,-4.688Z" style="fill:#eff7f5;fill-opacity:0.91;"/><path d="M165.906,103.706c42.863,5.245 43.391,2.354 46.289,4.688c51.107,41.161 56.034,14.215 119.784,-4.762c0.997,10.493 1.993,20.986 2.99,31.479c-17.576,7.02 -17.48,13.185 -25.624,29.861c-78.02,-8.088 -89.481,23.027 -155.62,-18.361l12.181,-42.905Z" style="fill:#0a0606;"/><path d="M155.724,140.612c66.139,41.388 75.6,8.273 153.62,16.361c-12.286,25.442 -20.251,20.872 -23.801,47.641c-59.215,-14.096 -87.336,-6.14 -112.305,-12.496c-13.603,-3.463 -30.423,-8.447 -32.508,-17.948c-2.086,-9.501 8.33,-24.429 14.994,-33.557Z" style="fill:#9b0000;fill-opacity:1;"/><path d="M334.969,135.112c118.498,31.828 12.718,102.604 -49.425,69.502c3.55,-26.769 11.515,-22.199 23.801,-47.641c8.144,-16.676 8.048,-14.841 25.624,-21.861Z" style="fill:#eff5f3;fill-opacity:0.99;"/><path d="M274.847,354.979c-1.75,22.639 -39.371,50.363 -39.371,50.363c0,0 -12.941,5.718 -16.636,5.381c-34.463,-95.633 59.837,-105.285 56.007,-55.744Z" style="fill:#fd7b07;"/><path d="M326.792,322.037c-12.163,12.701 -34.437,11.84 -39.403,0c-4.547,-10.841 -6.221,-23.351 -0.387,-33.366c7.125,-12.231 23.848,-18.819 38.588,-2.303c14.313,16.037 9.527,26.976 1.202,35.669Z" style="fill:#131416;"/><path d="M190.994,332.939c-11.999,2.094 -29.05,-12.367 -28.288,-23.12c0.883,-12.473 -0.32,-28.971 22.608,-30.474c14.441,-0.947 24.594,11.269 27.522,24.521c3.292,14.895 -2.785,25.748 -21.843,29.073Z" style="fill:#101214;"/></g></svg>